%TF.GenerationSoftware,KiCad,Pcbnew,10.0.6*%
%TF.CreationDate,2026-09-08T17:42:08+02:00*%
%TF.ProjectId,cryo-temp-alert,6372796f-2d74-4656-9d70-2d616c657274,rev?*%
%TF.SameCoordinates,Original*%
%TF.FileFunction,Copper,L2,Bot*%
%TF.FilePolarity,Positive*%
%FSLAX46Y46*%
G04 Gerber Fmt 4.6, Leading zero omitted, Abs format (unit mm)*
G04 Created by KiCad (PCBNEW 10.0.6) date 2026-09-08 17:42:08*
%MOMM*%
%LPD*%
G01*
G04 APERTURE LIST*
G04 Aperture macros list*
%AMRoundRect*
0 Rectangle with rounded corners*
0 $1 Rounding radius*
0 $2 $3 $4 $5 $6 $7 $8 $9 X,Y pos of 4 corners*
0 Add a 4 corners polygon primitive as box body*
4,1,4,$2,$3,$4,$5,$6,$7,$8,$9,$2,$3,0*
0 Add four circle primitives for the rounded corners*
1,1,$1+$1,$2,$3*
1,1,$1+$1,$4,$5*
1,1,$1+$1,$6,$7*
1,1,$1+$1,$8,$9*
0 Add four rect primitives between the rounded corners*
20,1,$1+$1,$2,$3,$4,$5,0*
20,1,$1+$1,$4,$5,$6,$7,0*
20,1,$1+$1,$6,$7,$8,$9,0*
20,1,$1+$1,$8,$9,$2,$3,0*%
G04 Aperture macros list end*
%TA.AperFunction,ComponentPad*%
%ADD10R,1.600000X1.600000*%
%TD*%
%TA.AperFunction,ComponentPad*%
%ADD11C,1.600000*%
%TD*%
%TA.AperFunction,ComponentPad*%
%ADD12R,1.700000X1.700000*%
%TD*%
%TA.AperFunction,ComponentPad*%
%ADD13C,1.700000*%
%TD*%
%TA.AperFunction,SMDPad,CuDef*%
%ADD14RoundRect,0.225000X-0.225000X-0.250000X0.225000X-0.250000X0.225000X0.250000X-0.225000X0.250000X0*%
%TD*%
%TA.AperFunction,SMDPad,CuDef*%
%ADD15RoundRect,0.100000X-0.637500X-0.100000X0.637500X-0.100000X0.637500X0.100000X-0.637500X0.100000X0*%
%TD*%
%TA.AperFunction,SMDPad,CuDef*%
%ADD16RoundRect,0.093750X-0.093750X-0.106250X0.093750X-0.106250X0.093750X0.106250X-0.093750X0.106250X0*%
%TD*%
%TA.AperFunction,HeatsinkPad*%
%ADD17R,1.000000X1.600000*%
%TD*%
%TA.AperFunction,ViaPad*%
%ADD18C,0.600000*%
%TD*%
%TA.AperFunction,Conductor*%
%ADD19C,0.200000*%
%TD*%
G04 APERTURE END LIST*
D10*
%TO.P,BT1,1*%
%TO.N,VCC*%
X-4000000Y10000000D03*
D11*
%TO.P,BT1,2*%
%TO.N,GND*%
X-750000Y12450000D03*
%TD*%
D12*
%TO.P,J1,1*%
%TO.N,VBAT_SENSE*%
X6500000Y-6500000D03*
D13*
%TO.P,J1,2*%
%TO.N,GND*%
X6500000Y-9040000D03*
%TO.P,J1,3*%
X6500000Y-11580000D03*
%TO.P,J1,4*%
%TO.N,VBAT_SENSE*%
X6500000Y-14120000D03*
%TD*%
D14*
%TO.P,C1,1*%
%TO.N,VCC*%
X4725000Y4500000D03*
%TO.P,C1,2*%
%TO.N,GND*%
X6275000Y4500000D03*
%TD*%
%TO.P,C2,1*%
%TO.N,VDDA*%
X2725000Y7000000D03*
%TO.P,C2,2*%
%TO.N,GND*%
X4275000Y7000000D03*
%TD*%
D15*
%TO.P,U1,1*%
%TO.N,VDDA*%
X-5862500Y2925000D03*
%TO.P,U1,2*%
%TO.N,GND*%
X-5862500Y2275000D03*
%TO.P,U1,3*%
%TO.N,NRST*%
X-5862500Y1625000D03*
%TO.P,U1,4*%
%TO.N,GND*%
X-5862500Y975000D03*
%TO.P,U1,5*%
%TO.N,SW_SIG*%
X-5862500Y325000D03*
%TO.P,U1,6*%
%TO.N,LED_SIG*%
X-5862500Y-325000D03*
%TO.P,U1,7*%
%TO.N,BUZZER*%
X-5862500Y-975000D03*
%TO.P,U1,8*%
%TO.N,GND*%
X-5862500Y-1625000D03*
%TO.P,U1,9*%
%TO.N,VCC*%
X-5862500Y-2275000D03*
%TO.P,U1,10*%
%TO.N,GND*%
X-5862500Y-2925000D03*
%TO.P,U1,11*%
X-137500Y-2925000D03*
%TO.P,U1,12*%
%TO.N,VCC*%
X-137500Y-2275000D03*
%TO.P,U1,13*%
%TO.N,SCL*%
X-137500Y-1625000D03*
%TO.P,U1,14*%
%TO.N,SDA*%
X-137500Y-975000D03*
%TO.P,U1,15*%
%TO.N,DEC_100NF*%
X-137500Y-325000D03*
%TO.P,U1,16*%
%TO.N,VDDA*%
X-137500Y325000D03*
%TO.P,U1,17*%
%TO.N,LED_SIG*%
X-137500Y975000D03*
%TO.P,U1,18*%
%TO.N,SW_SIG*%
X-137500Y1625000D03*
%TO.P,U1,19*%
%TO.N,SDA*%
X-137500Y2275000D03*
%TO.P,U1,20*%
%TO.N,SCL*%
X-137500Y2925000D03*
%TD*%
D16*
%TO.P,U2,1*%
%TO.N,VCC*%
X-887500Y-6350000D03*
%TO.P,U2,2*%
%TO.N,SDA*%
X-887500Y-7000000D03*
%TO.P,U2,3*%
%TO.N,SCL*%
X-887500Y-7650000D03*
%TO.P,U2,4*%
%TO.N,GND*%
X887500Y-7650000D03*
%TO.P,U2,5*%
%TO.N,I2C_ADDR*%
X887500Y-7000000D03*
%TO.P,U2,6*%
X887500Y-6350000D03*
D17*
%TO.P,U2,7*%
%TO.N,GND*%
X0Y-7000000D03*
%TD*%
D18*
%TO.N,GND*%
X1582600Y-7500600D03*
X-4354900Y1973300D03*
%TO.N,VCC*%
X7175000Y6993400D03*
X6758000Y-2500000D03*
%TO.N,LED_SIG*%
X-7956200Y-474400D03*
%TO.N,BUZZER*%
X-10998800Y-4373400D03*
%TO.N,SDA*%
X1135100Y2238400D03*
X3596600Y-8589600D03*
%TO.N,SCL*%
X1089900Y3322600D03*
%TO.N,NRST*%
X-7125200Y1625000D03*
%TO.N,SW_SIG*%
X9975600Y3850000D03*
%TO.N,VDDA*%
X-1380900Y-1831500D03*
X-4278800Y2775600D03*
%TD*%
%TO.N,GND*%
D19*
X-2377300Y7791200D02*
X-6962300Y3206200D01*
X3483800Y7791200D02*
X-2377300Y7791200D01*
X5916200Y-9623800D02*
X-899400Y-9623800D01*
X-11261700Y-5019600D02*
X-11601100Y-4680200D01*
X0Y-7000000D02*
X36500Y-7036500D01*
X-7326800Y-3196300D02*
X-9150100Y-5019600D01*
X-5491500Y975000D02*
X-5350000Y833500D01*
X-4768800Y1161400D02*
X-4654800Y1275400D01*
X1582600Y-7500600D02*
X1036900Y-7500600D01*
X-6568300Y2275000D02*
X-5862500Y2275000D01*
X-7379700Y975000D02*
X-5862500Y975000D01*
X-899400Y-9623800D02*
X-7326800Y-3196300D01*
X3875500Y4118100D02*
X3875500Y6600500D01*
X4280700Y3712900D02*
X3875500Y4118100D01*
X-6962300Y2669000D02*
X-6568300Y2275000D01*
X-5350000Y833500D02*
X-4966300Y1217200D01*
X-6906100Y-2775600D02*
X-6011900Y-2775600D01*
X-5862500Y-2925000D02*
X-137500Y-2925000D01*
X-4654800Y1275400D02*
X-4647000Y1275400D01*
X-11601100Y-3246400D02*
X-7379700Y975000D01*
X3875500Y6600500D02*
X4275000Y7000000D01*
X-9150100Y-5019600D02*
X-11261700Y-5019600D01*
X-5862500Y975000D02*
X-5491500Y975000D01*
X738100Y-7500600D02*
X887500Y-7650000D01*
X-4966300Y1217200D02*
X-4824600Y1217200D01*
X-6554300Y-1625000D02*
X-6906100Y-1976800D01*
X6275000Y4500000D02*
X5487900Y3712900D01*
X-4647000Y2125600D02*
X-5713100Y2125600D01*
X6500000Y-9040000D02*
X5916200Y-9623800D01*
X-6906100Y-1976800D02*
X-6906100Y-2775600D01*
X-5862500Y-1625000D02*
X-6554300Y-1625000D01*
X36500Y-7500600D02*
X738100Y-7500600D01*
X-4354900Y2125600D02*
X-4647000Y2125600D01*
X-6011900Y-2775600D02*
X-5862500Y-2925000D01*
X-5713100Y2125600D02*
X-5862500Y2275000D01*
X36500Y-7036500D02*
X36500Y-7500600D01*
X-4647000Y1275400D02*
X-4647000Y2125600D01*
X-4354900Y2125600D02*
X-4354900Y1973300D01*
X-4824600Y1217200D02*
X-4768800Y1161400D01*
X-6906100Y-2775600D02*
X-7326800Y-3196300D01*
X5487900Y3712900D02*
X4280700Y3712900D01*
X4275000Y7000000D02*
X3483800Y7791200D01*
X1036900Y-7500600D02*
X887500Y-7650000D01*
X-6962300Y3206200D02*
X-6962300Y2669000D01*
X-11601100Y-4680200D02*
X-11601100Y-3246400D01*
%TO.N,VCC*%
X-1923600Y-2458300D02*
X-2106900Y-2275000D01*
X-2106900Y-2275000D02*
X-5862500Y-2275000D01*
X-887500Y-6350000D02*
X-887500Y-5006400D01*
X967200Y-2629900D02*
X612300Y-2275000D01*
X967200Y-3151700D02*
X967200Y-2629900D01*
X7690100Y6993400D02*
X10624800Y4058700D01*
X4725000Y4543400D02*
X4725000Y4500000D01*
X-887500Y-5006400D02*
X967200Y-3151700D01*
X-1817500Y-7160100D02*
X-1007400Y-6350000D01*
X7175000Y6993400D02*
X7690100Y6993400D01*
X-1007400Y-6350000D02*
X-887500Y-6350000D01*
X10624800Y4058700D02*
X10624800Y1366800D01*
X-4000000Y10000000D02*
X4168400Y10000000D01*
X4168400Y10000000D02*
X7175000Y6993400D01*
X-1817500Y-8091400D02*
X-1817500Y-7160100D01*
X4662500Y-8398000D02*
X3840300Y-9220200D01*
X3840300Y-9220200D02*
X-688700Y-9220200D01*
X7175000Y6993400D02*
X4725000Y4543400D01*
X4662500Y-4595500D02*
X4662500Y-8398000D01*
X6758000Y-2500000D02*
X4662500Y-4595500D01*
X-137500Y-2275000D02*
X-793700Y-2275000D01*
X-688700Y-9220200D02*
X-1817500Y-8091400D01*
X-793700Y-2275000D02*
X-977000Y-2458300D01*
X612300Y-2275000D02*
X-137500Y-2275000D01*
X-977000Y-2458300D02*
X-1923600Y-2458300D01*
X10624800Y1366800D02*
X6758000Y-2500000D01*
%TO.N,LED_SIG*%
X-7751300Y-474400D02*
X-7751300Y-325000D01*
X-3187200Y-325000D02*
X-5862500Y-325000D01*
X-7751300Y-325000D02*
X-5862500Y-325000D01*
X-137500Y975000D02*
X-1887200Y975000D01*
X-1887200Y975000D02*
X-3187200Y-325000D01*
X-7956200Y-474400D02*
X-7751300Y-474400D01*
%TO.N,BUZZER*%
X-5862500Y-975000D02*
X-7600400Y-975000D01*
X-7600400Y-975000D02*
X-10998800Y-4373400D01*
%TO.N,SDA*%
X-1392300Y-7933100D02*
X-735800Y-8589600D01*
X1135100Y2238400D02*
X-100900Y2238400D01*
X-100900Y2238400D02*
X-137500Y2275000D01*
X-1009400Y-7000000D02*
X-1392300Y-7382900D01*
X-735800Y-8589600D02*
X3596600Y-8589600D01*
X1135100Y-383700D02*
X543800Y-975000D01*
X543800Y-975000D02*
X-137500Y-975000D01*
X1135100Y2238400D02*
X1135100Y-383700D01*
X-1392300Y-7382900D02*
X-1392300Y-7933100D01*
X-887500Y-7000000D02*
X-1009400Y-7000000D01*
%TO.N,SCL*%
X1816600Y-8169900D02*
X-571800Y-8169900D01*
X1753100Y2659400D02*
X1089900Y3322600D01*
X-571800Y-8169900D02*
X-887500Y-7854200D01*
X-137500Y-1625000D02*
X567300Y-1625000D01*
X567300Y-1625000D02*
X1753100Y-439200D01*
X1089900Y3322600D02*
X260100Y3322600D01*
X567300Y-1625000D02*
X2214000Y-3271700D01*
X1753100Y-439200D02*
X1753100Y2659400D01*
X260100Y3322600D02*
X-137500Y2925000D01*
X-887500Y-7854200D02*
X-887500Y-7650000D01*
X2214000Y-3271700D02*
X2214000Y-7772500D01*
X2214000Y-7772500D02*
X1816600Y-8169900D01*
%TO.N,NRST*%
X-5862500Y1625000D02*
X-7125200Y1625000D01*
%TO.N,SW_SIG*%
X-1205500Y3195000D02*
X-476200Y3924300D01*
X-137500Y1625000D02*
X-666600Y1625000D01*
X2153300Y3311200D02*
X9436800Y3311200D01*
X-2039300Y1625000D02*
X-3339300Y325000D01*
X-666600Y1625000D02*
X-2039300Y1625000D01*
X9436800Y3311200D02*
X9975600Y3850000D01*
X-476200Y3924300D02*
X1540200Y3924300D01*
X-824800Y1625000D02*
X-1205500Y2005700D01*
X1540200Y3924300D02*
X2153300Y3311200D01*
X-3339300Y325000D02*
X-5862500Y325000D01*
X-666600Y1625000D02*
X-824800Y1625000D01*
X-1205500Y2005700D02*
X-1205500Y3195000D01*
%TO.N,VDDA*%
X-881000Y325000D02*
X-1380900Y-174900D01*
X-54400Y7000000D02*
X2725000Y7000000D01*
X-1380900Y-174900D02*
X-1380900Y-1831500D01*
X-4278800Y2775600D02*
X-54400Y7000000D01*
X-5713100Y2775600D02*
X-5862500Y2925000D01*
X-4278800Y2775600D02*
X-5713100Y2775600D01*
X-137500Y325000D02*
X-881000Y325000D01*
%TO.N,I2C_ADDR*%
X887500Y-7000000D02*
X887500Y-6350000D01*
%TD*%
M02*
