%TF.GenerationSoftware,KiCad,Pcbnew,10.0.6*%
%TF.CreationDate,2026-09-08T17:42:08+02:00*%
%TF.ProjectId,cryo-temp-alert,6372796f-2d74-4656-9d70-2d616c657274,rev?*%
%TF.SameCoordinates,Original*%
%TF.FileFunction,AssemblyDrawing,Bot*%
%FSLAX46Y46*%
G04 Gerber Fmt 4.6, Leading zero omitted, Abs format (unit mm)*
G04 Created by KiCad (PCBNEW 10.0.6) date 2026-09-08 17:42:08*
%MOMM*%
%LPD*%
G01*
G04 APERTURE LIST*
%ADD10C,0.150000*%
%ADD11C,0.060000*%
%ADD12C,0.080000*%
%ADD13C,0.100000*%
G04 APERTURE END LIST*
D10*
X5810952Y4045180D02*
X5239524Y4045180D01*
X5525238Y4045180D02*
X5525238Y5045180D01*
X5525238Y5045180D02*
X5430000Y4902323D01*
X5430000Y4902323D02*
X5334762Y4807085D01*
X5334762Y4807085D02*
X5239524Y4759466D01*
X6430000Y5045180D02*
X6525238Y5045180D01*
X6525238Y5045180D02*
X6620476Y4997561D01*
X6620476Y4997561D02*
X6668095Y4949942D01*
X6668095Y4949942D02*
X6715714Y4854704D01*
X6715714Y4854704D02*
X6763333Y4664228D01*
X6763333Y4664228D02*
X6763333Y4426133D01*
X6763333Y4426133D02*
X6715714Y4235657D01*
X6715714Y4235657D02*
X6668095Y4140419D01*
X6668095Y4140419D02*
X6620476Y4092800D01*
X6620476Y4092800D02*
X6525238Y4045180D01*
X6525238Y4045180D02*
X6430000Y4045180D01*
X6430000Y4045180D02*
X6334762Y4092800D01*
X6334762Y4092800D02*
X6287143Y4140419D01*
X6287143Y4140419D02*
X6239524Y4235657D01*
X6239524Y4235657D02*
X6191905Y4426133D01*
X6191905Y4426133D02*
X6191905Y4664228D01*
X6191905Y4664228D02*
X6239524Y4854704D01*
X6239524Y4854704D02*
X6287143Y4949942D01*
X6287143Y4949942D02*
X6334762Y4997561D01*
X6334762Y4997561D02*
X6430000Y5045180D01*
X7382381Y5045180D02*
X7477619Y5045180D01*
X7477619Y5045180D02*
X7572857Y4997561D01*
X7572857Y4997561D02*
X7620476Y4949942D01*
X7620476Y4949942D02*
X7668095Y4854704D01*
X7668095Y4854704D02*
X7715714Y4664228D01*
X7715714Y4664228D02*
X7715714Y4426133D01*
X7715714Y4426133D02*
X7668095Y4235657D01*
X7668095Y4235657D02*
X7620476Y4140419D01*
X7620476Y4140419D02*
X7572857Y4092800D01*
X7572857Y4092800D02*
X7477619Y4045180D01*
X7477619Y4045180D02*
X7382381Y4045180D01*
X7382381Y4045180D02*
X7287143Y4092800D01*
X7287143Y4092800D02*
X7239524Y4140419D01*
X7239524Y4140419D02*
X7191905Y4235657D01*
X7191905Y4235657D02*
X7144286Y4426133D01*
X7144286Y4426133D02*
X7144286Y4664228D01*
X7144286Y4664228D02*
X7191905Y4854704D01*
X7191905Y4854704D02*
X7239524Y4949942D01*
X7239524Y4949942D02*
X7287143Y4997561D01*
X7287143Y4997561D02*
X7382381Y5045180D01*
X8144286Y4711847D02*
X8144286Y4045180D01*
X8144286Y4616609D02*
X8191905Y4664228D01*
X8191905Y4664228D02*
X8287143Y4711847D01*
X8287143Y4711847D02*
X8430000Y4711847D01*
X8430000Y4711847D02*
X8525238Y4664228D01*
X8525238Y4664228D02*
X8572857Y4568990D01*
X8572857Y4568990D02*
X8572857Y4045180D01*
D11*
X5433333Y4356167D02*
X5414285Y4337120D01*
X5414285Y4337120D02*
X5357143Y4318072D01*
X5357143Y4318072D02*
X5319047Y4318072D01*
X5319047Y4318072D02*
X5261904Y4337120D01*
X5261904Y4337120D02*
X5223809Y4375215D01*
X5223809Y4375215D02*
X5204762Y4413310D01*
X5204762Y4413310D02*
X5185714Y4489500D01*
X5185714Y4489500D02*
X5185714Y4546643D01*
X5185714Y4546643D02*
X5204762Y4622834D01*
X5204762Y4622834D02*
X5223809Y4660929D01*
X5223809Y4660929D02*
X5261904Y4699024D01*
X5261904Y4699024D02*
X5319047Y4718072D01*
X5319047Y4718072D02*
X5357143Y4718072D01*
X5357143Y4718072D02*
X5414285Y4699024D01*
X5414285Y4699024D02*
X5433333Y4679977D01*
X5814285Y4318072D02*
X5585714Y4318072D01*
X5700000Y4318072D02*
X5700000Y4718072D01*
X5700000Y4718072D02*
X5661904Y4660929D01*
X5661904Y4660929D02*
X5623809Y4622834D01*
X5623809Y4622834D02*
X5585714Y4603786D01*
D10*
X3810952Y6545180D02*
X3239524Y6545180D01*
X3525238Y6545180D02*
X3525238Y7545180D01*
X3525238Y7545180D02*
X3430000Y7402323D01*
X3430000Y7402323D02*
X3334762Y7307085D01*
X3334762Y7307085D02*
X3239524Y7259466D01*
X4430000Y7545180D02*
X4525238Y7545180D01*
X4525238Y7545180D02*
X4620476Y7497561D01*
X4620476Y7497561D02*
X4668095Y7449942D01*
X4668095Y7449942D02*
X4715714Y7354704D01*
X4715714Y7354704D02*
X4763333Y7164228D01*
X4763333Y7164228D02*
X4763333Y6926133D01*
X4763333Y6926133D02*
X4715714Y6735657D01*
X4715714Y6735657D02*
X4668095Y6640419D01*
X4668095Y6640419D02*
X4620476Y6592800D01*
X4620476Y6592800D02*
X4525238Y6545180D01*
X4525238Y6545180D02*
X4430000Y6545180D01*
X4430000Y6545180D02*
X4334762Y6592800D01*
X4334762Y6592800D02*
X4287143Y6640419D01*
X4287143Y6640419D02*
X4239524Y6735657D01*
X4239524Y6735657D02*
X4191905Y6926133D01*
X4191905Y6926133D02*
X4191905Y7164228D01*
X4191905Y7164228D02*
X4239524Y7354704D01*
X4239524Y7354704D02*
X4287143Y7449942D01*
X4287143Y7449942D02*
X4334762Y7497561D01*
X4334762Y7497561D02*
X4430000Y7545180D01*
X5382381Y7545180D02*
X5477619Y7545180D01*
X5477619Y7545180D02*
X5572857Y7497561D01*
X5572857Y7497561D02*
X5620476Y7449942D01*
X5620476Y7449942D02*
X5668095Y7354704D01*
X5668095Y7354704D02*
X5715714Y7164228D01*
X5715714Y7164228D02*
X5715714Y6926133D01*
X5715714Y6926133D02*
X5668095Y6735657D01*
X5668095Y6735657D02*
X5620476Y6640419D01*
X5620476Y6640419D02*
X5572857Y6592800D01*
X5572857Y6592800D02*
X5477619Y6545180D01*
X5477619Y6545180D02*
X5382381Y6545180D01*
X5382381Y6545180D02*
X5287143Y6592800D01*
X5287143Y6592800D02*
X5239524Y6640419D01*
X5239524Y6640419D02*
X5191905Y6735657D01*
X5191905Y6735657D02*
X5144286Y6926133D01*
X5144286Y6926133D02*
X5144286Y7164228D01*
X5144286Y7164228D02*
X5191905Y7354704D01*
X5191905Y7354704D02*
X5239524Y7449942D01*
X5239524Y7449942D02*
X5287143Y7497561D01*
X5287143Y7497561D02*
X5382381Y7545180D01*
X6144286Y7211847D02*
X6144286Y6545180D01*
X6144286Y7116609D02*
X6191905Y7164228D01*
X6191905Y7164228D02*
X6287143Y7211847D01*
X6287143Y7211847D02*
X6430000Y7211847D01*
X6430000Y7211847D02*
X6525238Y7164228D01*
X6525238Y7164228D02*
X6572857Y7068990D01*
X6572857Y7068990D02*
X6572857Y6545180D01*
D11*
X3433333Y6856167D02*
X3414285Y6837120D01*
X3414285Y6837120D02*
X3357143Y6818072D01*
X3357143Y6818072D02*
X3319047Y6818072D01*
X3319047Y6818072D02*
X3261904Y6837120D01*
X3261904Y6837120D02*
X3223809Y6875215D01*
X3223809Y6875215D02*
X3204762Y6913310D01*
X3204762Y6913310D02*
X3185714Y6989500D01*
X3185714Y6989500D02*
X3185714Y7046643D01*
X3185714Y7046643D02*
X3204762Y7122834D01*
X3204762Y7122834D02*
X3223809Y7160929D01*
X3223809Y7160929D02*
X3261904Y7199024D01*
X3261904Y7199024D02*
X3319047Y7218072D01*
X3319047Y7218072D02*
X3357143Y7218072D01*
X3357143Y7218072D02*
X3414285Y7199024D01*
X3414285Y7199024D02*
X3433333Y7179977D01*
X3585714Y7179977D02*
X3604762Y7199024D01*
X3604762Y7199024D02*
X3642857Y7218072D01*
X3642857Y7218072D02*
X3738095Y7218072D01*
X3738095Y7218072D02*
X3776190Y7199024D01*
X3776190Y7199024D02*
X3795238Y7179977D01*
X3795238Y7179977D02*
X3814285Y7141881D01*
X3814285Y7141881D02*
X3814285Y7103786D01*
X3814285Y7103786D02*
X3795238Y7046643D01*
X3795238Y7046643D02*
X3566666Y6818072D01*
X3566666Y6818072D02*
X3814285Y6818072D01*
D10*
X-7023809Y3792800D02*
X-6880952Y3745180D01*
X-6880952Y3745180D02*
X-6642857Y3745180D01*
X-6642857Y3745180D02*
X-6547619Y3792800D01*
X-6547619Y3792800D02*
X-6500000Y3840419D01*
X-6500000Y3840419D02*
X-6452381Y3935657D01*
X-6452381Y3935657D02*
X-6452381Y4030895D01*
X-6452381Y4030895D02*
X-6500000Y4126133D01*
X-6500000Y4126133D02*
X-6547619Y4173752D01*
X-6547619Y4173752D02*
X-6642857Y4221371D01*
X-6642857Y4221371D02*
X-6833333Y4268990D01*
X-6833333Y4268990D02*
X-6928571Y4316609D01*
X-6928571Y4316609D02*
X-6976190Y4364228D01*
X-6976190Y4364228D02*
X-7023809Y4459466D01*
X-7023809Y4459466D02*
X-7023809Y4554704D01*
X-7023809Y4554704D02*
X-6976190Y4649942D01*
X-6976190Y4649942D02*
X-6928571Y4697561D01*
X-6928571Y4697561D02*
X-6833333Y4745180D01*
X-6833333Y4745180D02*
X-6595238Y4745180D01*
X-6595238Y4745180D02*
X-6452381Y4697561D01*
X-6166666Y4745180D02*
X-5595238Y4745180D01*
X-5880952Y3745180D02*
X-5880952Y4745180D01*
X-5261904Y3745180D02*
X-5261904Y4745180D01*
X-5261904Y4745180D02*
X-4928571Y4030895D01*
X-4928571Y4030895D02*
X-4595238Y4745180D01*
X-4595238Y4745180D02*
X-4595238Y3745180D01*
X-4214285Y4745180D02*
X-3595238Y4745180D01*
X-3595238Y4745180D02*
X-3928571Y4364228D01*
X-3928571Y4364228D02*
X-3785714Y4364228D01*
X-3785714Y4364228D02*
X-3690476Y4316609D01*
X-3690476Y4316609D02*
X-3642857Y4268990D01*
X-3642857Y4268990D02*
X-3595238Y4173752D01*
X-3595238Y4173752D02*
X-3595238Y3935657D01*
X-3595238Y3935657D02*
X-3642857Y3840419D01*
X-3642857Y3840419D02*
X-3690476Y3792800D01*
X-3690476Y3792800D02*
X-3785714Y3745180D01*
X-3785714Y3745180D02*
X-4071428Y3745180D01*
X-4071428Y3745180D02*
X-4166666Y3792800D01*
X-4166666Y3792800D02*
X-4214285Y3840419D01*
X-3214285Y4649942D02*
X-3166666Y4697561D01*
X-3166666Y4697561D02*
X-3071428Y4745180D01*
X-3071428Y4745180D02*
X-2833333Y4745180D01*
X-2833333Y4745180D02*
X-2738095Y4697561D01*
X-2738095Y4697561D02*
X-2690476Y4649942D01*
X-2690476Y4649942D02*
X-2642857Y4554704D01*
X-2642857Y4554704D02*
X-2642857Y4459466D01*
X-2642857Y4459466D02*
X-2690476Y4316609D01*
X-2690476Y4316609D02*
X-3261904Y3745180D01*
X-3261904Y3745180D02*
X-2642857Y3745180D01*
X-1738095Y3745180D02*
X-2214285Y3745180D01*
X-2214285Y3745180D02*
X-2214285Y4745180D01*
X-1214285Y4745180D02*
X-1119047Y4745180D01*
X-1119047Y4745180D02*
X-1023809Y4697561D01*
X-1023809Y4697561D02*
X-976190Y4649942D01*
X-976190Y4649942D02*
X-928571Y4554704D01*
X-928571Y4554704D02*
X-880952Y4364228D01*
X-880952Y4364228D02*
X-880952Y4126133D01*
X-880952Y4126133D02*
X-928571Y3935657D01*
X-928571Y3935657D02*
X-976190Y3840419D01*
X-976190Y3840419D02*
X-1023809Y3792800D01*
X-1023809Y3792800D02*
X-1119047Y3745180D01*
X-1119047Y3745180D02*
X-1214285Y3745180D01*
X-1214285Y3745180D02*
X-1309523Y3792800D01*
X-1309523Y3792800D02*
X-1357142Y3840419D01*
X-1357142Y3840419D02*
X-1404761Y3935657D01*
X-1404761Y3935657D02*
X-1452380Y4126133D01*
X-1452380Y4126133D02*
X-1452380Y4364228D01*
X-1452380Y4364228D02*
X-1404761Y4554704D01*
X-1404761Y4554704D02*
X-1357142Y4649942D01*
X-1357142Y4649942D02*
X-1309523Y4697561D01*
X-1309523Y4697561D02*
X-1214285Y4745180D01*
X71428Y3745180D02*
X-499999Y3745180D01*
X-214285Y3745180D02*
X-214285Y4745180D01*
X-214285Y4745180D02*
X-309523Y4602323D01*
X-309523Y4602323D02*
X-404761Y4507085D01*
X-404761Y4507085D02*
X-499999Y4459466D01*
X1023809Y3745180D02*
X452381Y3745180D01*
X738095Y3745180D02*
X738095Y4745180D01*
X738095Y4745180D02*
X642857Y4602323D01*
X642857Y4602323D02*
X547619Y4507085D01*
X547619Y4507085D02*
X452381Y4459466D01*
X-3761904Y545180D02*
X-3761904Y-264342D01*
X-3761904Y-264342D02*
X-3714285Y-359580D01*
X-3714285Y-359580D02*
X-3666666Y-407200D01*
X-3666666Y-407200D02*
X-3571428Y-454819D01*
X-3571428Y-454819D02*
X-3380952Y-454819D01*
X-3380952Y-454819D02*
X-3285714Y-407200D01*
X-3285714Y-407200D02*
X-3238095Y-359580D01*
X-3238095Y-359580D02*
X-3190476Y-264342D01*
X-3190476Y-264342D02*
X-3190476Y545180D01*
X-2190476Y-454819D02*
X-2761904Y-454819D01*
X-2476190Y-454819D02*
X-2476190Y545180D01*
X-2476190Y545180D02*
X-2571428Y402323D01*
X-2571428Y402323D02*
X-2666666Y307085D01*
X-2666666Y307085D02*
X-2761904Y259466D01*
X-5023809Y-8404819D02*
X-4452381Y-8404819D01*
X-4738095Y-9404819D02*
X-4738095Y-8404819D01*
X-4119047Y-9404819D02*
X-4119047Y-8404819D01*
X-4119047Y-8404819D02*
X-3785714Y-9119104D01*
X-3785714Y-9119104D02*
X-3452381Y-8404819D01*
X-3452381Y-8404819D02*
X-3452381Y-9404819D01*
X-2976190Y-9404819D02*
X-2976190Y-8404819D01*
X-2976190Y-8404819D02*
X-2595238Y-8404819D01*
X-2595238Y-8404819D02*
X-2500000Y-8452438D01*
X-2500000Y-8452438D02*
X-2452381Y-8500057D01*
X-2452381Y-8500057D02*
X-2404762Y-8595295D01*
X-2404762Y-8595295D02*
X-2404762Y-8738152D01*
X-2404762Y-8738152D02*
X-2452381Y-8833390D01*
X-2452381Y-8833390D02*
X-2500000Y-8881009D01*
X-2500000Y-8881009D02*
X-2595238Y-8928628D01*
X-2595238Y-8928628D02*
X-2976190Y-8928628D01*
X-1452381Y-9404819D02*
X-2023809Y-9404819D01*
X-1738095Y-9404819D02*
X-1738095Y-8404819D01*
X-1738095Y-8404819D02*
X-1833333Y-8547676D01*
X-1833333Y-8547676D02*
X-1928571Y-8642914D01*
X-1928571Y-8642914D02*
X-2023809Y-8690533D01*
X-500000Y-9404819D02*
X-1071428Y-9404819D01*
X-785714Y-9404819D02*
X-785714Y-8404819D01*
X-785714Y-8404819D02*
X-880952Y-8547676D01*
X-880952Y-8547676D02*
X-976190Y-8642914D01*
X-976190Y-8642914D02*
X-1071428Y-8690533D01*
X-166666Y-8404819D02*
X499999Y-8404819D01*
X499999Y-8404819D02*
X71428Y-9404819D01*
X785714Y-9404819D02*
X1309523Y-8738152D01*
X785714Y-8738152D02*
X1309523Y-9404819D01*
X1595238Y-9404819D02*
X2119047Y-8738152D01*
X1595238Y-8738152D02*
X2119047Y-9404819D01*
X2500000Y-9404819D02*
X2500000Y-8404819D01*
X2500000Y-8404819D02*
X2738095Y-8404819D01*
X2738095Y-8404819D02*
X2880952Y-8452438D01*
X2880952Y-8452438D02*
X2976190Y-8547676D01*
X2976190Y-8547676D02*
X3023809Y-8642914D01*
X3023809Y-8642914D02*
X3071428Y-8833390D01*
X3071428Y-8833390D02*
X3071428Y-8976247D01*
X3071428Y-8976247D02*
X3023809Y-9166723D01*
X3023809Y-9166723D02*
X2976190Y-9261961D01*
X2976190Y-9261961D02*
X2880952Y-9357200D01*
X2880952Y-9357200D02*
X2738095Y-9404819D01*
X2738095Y-9404819D02*
X2500000Y-9404819D01*
X4071428Y-9404819D02*
X3738095Y-8928628D01*
X3500000Y-9404819D02*
X3500000Y-8404819D01*
X3500000Y-8404819D02*
X3880952Y-8404819D01*
X3880952Y-8404819D02*
X3976190Y-8452438D01*
X3976190Y-8452438D02*
X4023809Y-8500057D01*
X4023809Y-8500057D02*
X4071428Y-8595295D01*
X4071428Y-8595295D02*
X4071428Y-8738152D01*
X4071428Y-8738152D02*
X4023809Y-8833390D01*
X4023809Y-8833390D02*
X3976190Y-8881009D01*
X3976190Y-8881009D02*
X3880952Y-8928628D01*
X3880952Y-8928628D02*
X3500000Y-8928628D01*
X4357143Y-8404819D02*
X4690476Y-9404819D01*
X4690476Y-9404819D02*
X5023809Y-8404819D01*
D12*
X-380952Y-6727149D02*
X-380952Y-7131911D01*
X-380952Y-7131911D02*
X-357142Y-7179530D01*
X-357142Y-7179530D02*
X-333333Y-7203340D01*
X-333333Y-7203340D02*
X-285714Y-7227149D01*
X-285714Y-7227149D02*
X-190476Y-7227149D01*
X-190476Y-7227149D02*
X-142857Y-7203340D01*
X-142857Y-7203340D02*
X-119047Y-7179530D01*
X-119047Y-7179530D02*
X-95238Y-7131911D01*
X-95238Y-7131911D02*
X-95238Y-6727149D01*
X119048Y-6774768D02*
X142857Y-6750959D01*
X142857Y-6750959D02*
X190476Y-6727149D01*
X190476Y-6727149D02*
X309524Y-6727149D01*
X309524Y-6727149D02*
X357143Y-6750959D01*
X357143Y-6750959D02*
X380952Y-6774768D01*
X380952Y-6774768D02*
X404762Y-6822387D01*
X404762Y-6822387D02*
X404762Y-6870006D01*
X404762Y-6870006D02*
X380952Y-6941435D01*
X380952Y-6941435D02*
X95238Y-7227149D01*
X95238Y-7227149D02*
X404762Y-7227149D01*
%TO.C,C1*%
D13*
X5100000Y5300000D02*
X5900000Y5300000D01*
X5900000Y3700000D01*
X5100000Y3700000D01*
X5100000Y5300000D01*
%TO.C,C2*%
X3100000Y7800000D02*
X3900000Y7800000D01*
X3900000Y6200000D01*
X3100000Y6200000D01*
X3100000Y7800000D01*
%TO.C,U1*%
X-1800000Y-3250000D02*
X-5200000Y-3250000D01*
X-5200000Y3250000D01*
X-800000Y3250000D01*
X-800000Y-2250000D01*
X-1800000Y-3250000D01*
%TO.C,U2*%
X-500000Y-6000000D02*
X1000000Y-6000000D01*
X1000000Y-8000000D01*
X-1000000Y-8000000D01*
X-1000000Y-6500000D01*
X-500000Y-6000000D01*
%TD*%
M02*
