%TF.GenerationSoftware,KiCad,Pcbnew,10.0.6*%
%TF.CreationDate,2026-09-08T17:42:08+02:00*%
%TF.ProjectId,cryo-temp-alert,6372796f-2d74-4656-9d70-2d616c657274,rev?*%
%TF.SameCoordinates,Original*%
%TF.FileFunction,Legend,Top*%
%TF.FilePolarity,Positive*%
%FSLAX46Y46*%
G04 Gerber Fmt 4.6, Leading zero omitted, Abs format (unit mm)*
G04 Created by KiCad (PCBNEW 10.0.6) date 2026-09-08 17:42:08*
%MOMM*%
%LPD*%
G01*
G04 APERTURE LIST*
%ADD10C,0.150000*%
%ADD11C,0.120000*%
G04 APERTURE END LIST*
D10*
X-14596666Y-2454819D02*
X-14929999Y-1978628D01*
X-15168094Y-2454819D02*
X-15168094Y-1454819D01*
X-15168094Y-1454819D02*
X-14787142Y-1454819D01*
X-14787142Y-1454819D02*
X-14691904Y-1502438D01*
X-14691904Y-1502438D02*
X-14644285Y-1550057D01*
X-14644285Y-1550057D02*
X-14596666Y-1645295D01*
X-14596666Y-1645295D02*
X-14596666Y-1788152D01*
X-14596666Y-1788152D02*
X-14644285Y-1883390D01*
X-14644285Y-1883390D02*
X-14691904Y-1931009D01*
X-14691904Y-1931009D02*
X-14787142Y-1978628D01*
X-14787142Y-1978628D02*
X-15168094Y-1978628D01*
X-13739523Y-1788152D02*
X-13739523Y-2454819D01*
X-13977618Y-1407200D02*
X-14215713Y-2121485D01*
X-14215713Y-2121485D02*
X-13596666Y-2121485D01*
X-3160714Y14068990D02*
X-3017857Y14021371D01*
X-3017857Y14021371D02*
X-2970238Y13973752D01*
X-2970238Y13973752D02*
X-2922619Y13878514D01*
X-2922619Y13878514D02*
X-2922619Y13735657D01*
X-2922619Y13735657D02*
X-2970238Y13640419D01*
X-2970238Y13640419D02*
X-3017857Y13592800D01*
X-3017857Y13592800D02*
X-3113095Y13545180D01*
X-3113095Y13545180D02*
X-3494047Y13545180D01*
X-3494047Y13545180D02*
X-3494047Y14545180D01*
X-3494047Y14545180D02*
X-3160714Y14545180D01*
X-3160714Y14545180D02*
X-3065476Y14497561D01*
X-3065476Y14497561D02*
X-3017857Y14449942D01*
X-3017857Y14449942D02*
X-2970238Y14354704D01*
X-2970238Y14354704D02*
X-2970238Y14259466D01*
X-2970238Y14259466D02*
X-3017857Y14164228D01*
X-3017857Y14164228D02*
X-3065476Y14116609D01*
X-3065476Y14116609D02*
X-3160714Y14068990D01*
X-3160714Y14068990D02*
X-3494047Y14068990D01*
X-2636904Y14545180D02*
X-2065476Y14545180D01*
X-2351190Y13545180D02*
X-2351190Y14545180D01*
X-1208333Y13545180D02*
X-1779761Y13545180D01*
X-1494047Y13545180D02*
X-1494047Y14545180D01*
X-1494047Y14545180D02*
X-1589285Y14402323D01*
X-1589285Y14402323D02*
X-1684523Y14307085D01*
X-1684523Y14307085D02*
X-1779761Y14259466D01*
X-5840951Y10426133D02*
X-5079047Y10426133D01*
X-5459999Y10045180D02*
X-5459999Y10807085D01*
X-7119047Y-11524819D02*
X-7595237Y-11524819D01*
X-7595237Y-11524819D02*
X-7595237Y-10524819D01*
X-6785713Y-11001009D02*
X-6452380Y-11001009D01*
X-6309523Y-11524819D02*
X-6785713Y-11524819D01*
X-6785713Y-11524819D02*
X-6785713Y-10524819D01*
X-6785713Y-10524819D02*
X-6309523Y-10524819D01*
X-5880951Y-11524819D02*
X-5880951Y-10524819D01*
X-5880951Y-10524819D02*
X-5642856Y-10524819D01*
X-5642856Y-10524819D02*
X-5499999Y-10572438D01*
X-5499999Y-10572438D02*
X-5404761Y-10667676D01*
X-5404761Y-10667676D02*
X-5357142Y-10762914D01*
X-5357142Y-10762914D02*
X-5309523Y-10953390D01*
X-5309523Y-10953390D02*
X-5309523Y-11096247D01*
X-5309523Y-11096247D02*
X-5357142Y-11286723D01*
X-5357142Y-11286723D02*
X-5404761Y-11381961D01*
X-5404761Y-11381961D02*
X-5499999Y-11477200D01*
X-5499999Y-11477200D02*
X-5642856Y-11524819D01*
X-5642856Y-11524819D02*
X-5880951Y-11524819D01*
X-4357142Y-11524819D02*
X-4928570Y-11524819D01*
X-4642856Y-11524819D02*
X-4642856Y-10524819D01*
X-4642856Y-10524819D02*
X-4738094Y-10667676D01*
X-4738094Y-10667676D02*
X-4833332Y-10762914D01*
X-4833332Y-10762914D02*
X-4928570Y-10810533D01*
X6166666Y-3574819D02*
X6166666Y-4289104D01*
X6166666Y-4289104D02*
X6119047Y-4431961D01*
X6119047Y-4431961D02*
X6023809Y-4527200D01*
X6023809Y-4527200D02*
X5880952Y-4574819D01*
X5880952Y-4574819D02*
X5785714Y-4574819D01*
X7166666Y-4574819D02*
X6595238Y-4574819D01*
X6880952Y-4574819D02*
X6880952Y-3574819D01*
X6880952Y-3574819D02*
X6785714Y-3717676D01*
X6785714Y-3717676D02*
X6690476Y-3812914D01*
X6690476Y-3812914D02*
X6595238Y-3860533D01*
X-7880952Y-1431009D02*
X-7738095Y-1478628D01*
X-7738095Y-1478628D02*
X-7690476Y-1526247D01*
X-7690476Y-1526247D02*
X-7642857Y-1621485D01*
X-7642857Y-1621485D02*
X-7642857Y-1764342D01*
X-7642857Y-1764342D02*
X-7690476Y-1859580D01*
X-7690476Y-1859580D02*
X-7738095Y-1907200D01*
X-7738095Y-1907200D02*
X-7833333Y-1954819D01*
X-7833333Y-1954819D02*
X-8214285Y-1954819D01*
X-8214285Y-1954819D02*
X-8214285Y-954819D01*
X-8214285Y-954819D02*
X-7880952Y-954819D01*
X-7880952Y-954819D02*
X-7785714Y-1002438D01*
X-7785714Y-1002438D02*
X-7738095Y-1050057D01*
X-7738095Y-1050057D02*
X-7690476Y-1145295D01*
X-7690476Y-1145295D02*
X-7690476Y-1240533D01*
X-7690476Y-1240533D02*
X-7738095Y-1335771D01*
X-7738095Y-1335771D02*
X-7785714Y-1383390D01*
X-7785714Y-1383390D02*
X-7880952Y-1431009D01*
X-7880952Y-1431009D02*
X-8214285Y-1431009D01*
X-7309523Y-954819D02*
X-6642857Y-954819D01*
X-6642857Y-954819D02*
X-7309523Y-1954819D01*
X-7309523Y-1954819D02*
X-6642857Y-1954819D01*
X-5738095Y-1954819D02*
X-6309523Y-1954819D01*
X-6023809Y-1954819D02*
X-6023809Y-954819D01*
X-6023809Y-954819D02*
X-6119047Y-1097676D01*
X-6119047Y-1097676D02*
X-6214285Y-1192914D01*
X-6214285Y-1192914D02*
X-6309523Y-1240533D01*
X6903333Y-2954819D02*
X6570000Y-2478628D01*
X6331905Y-2954819D02*
X6331905Y-1954819D01*
X6331905Y-1954819D02*
X6712857Y-1954819D01*
X6712857Y-1954819D02*
X6808095Y-2002438D01*
X6808095Y-2002438D02*
X6855714Y-2050057D01*
X6855714Y-2050057D02*
X6903333Y-2145295D01*
X6903333Y-2145295D02*
X6903333Y-2288152D01*
X6903333Y-2288152D02*
X6855714Y-2383390D01*
X6855714Y-2383390D02*
X6808095Y-2431009D01*
X6808095Y-2431009D02*
X6712857Y-2478628D01*
X6712857Y-2478628D02*
X6331905Y-2478628D01*
X7855714Y-2954819D02*
X7284286Y-2954819D01*
X7570000Y-2954819D02*
X7570000Y-1954819D01*
X7570000Y-1954819D02*
X7474762Y-2097676D01*
X7474762Y-2097676D02*
X7379524Y-2192914D01*
X7379524Y-2192914D02*
X7284286Y-2240533D01*
X6403333Y7545180D02*
X6070000Y8021371D01*
X5831905Y7545180D02*
X5831905Y8545180D01*
X5831905Y8545180D02*
X6212857Y8545180D01*
X6212857Y8545180D02*
X6308095Y8497561D01*
X6308095Y8497561D02*
X6355714Y8449942D01*
X6355714Y8449942D02*
X6403333Y8354704D01*
X6403333Y8354704D02*
X6403333Y8211847D01*
X6403333Y8211847D02*
X6355714Y8116609D01*
X6355714Y8116609D02*
X6308095Y8068990D01*
X6308095Y8068990D02*
X6212857Y8021371D01*
X6212857Y8021371D02*
X5831905Y8021371D01*
X6784286Y8449942D02*
X6831905Y8497561D01*
X6831905Y8497561D02*
X6927143Y8545180D01*
X6927143Y8545180D02*
X7165238Y8545180D01*
X7165238Y8545180D02*
X7260476Y8497561D01*
X7260476Y8497561D02*
X7308095Y8449942D01*
X7308095Y8449942D02*
X7355714Y8354704D01*
X7355714Y8354704D02*
X7355714Y8259466D01*
X7355714Y8259466D02*
X7308095Y8116609D01*
X7308095Y8116609D02*
X6736667Y7545180D01*
X6736667Y7545180D02*
X7355714Y7545180D01*
X-6166666Y5975180D02*
X-6499999Y6451371D01*
X-6738094Y5975180D02*
X-6738094Y6975180D01*
X-6738094Y6975180D02*
X-6357142Y6975180D01*
X-6357142Y6975180D02*
X-6261904Y6927561D01*
X-6261904Y6927561D02*
X-6214285Y6879942D01*
X-6214285Y6879942D02*
X-6166666Y6784704D01*
X-6166666Y6784704D02*
X-6166666Y6641847D01*
X-6166666Y6641847D02*
X-6214285Y6546609D01*
X-6214285Y6546609D02*
X-6261904Y6498990D01*
X-6261904Y6498990D02*
X-6357142Y6451371D01*
X-6357142Y6451371D02*
X-6738094Y6451371D01*
X-5833332Y6975180D02*
X-5214285Y6975180D01*
X-5214285Y6975180D02*
X-5547618Y6594228D01*
X-5547618Y6594228D02*
X-5404761Y6594228D01*
X-5404761Y6594228D02*
X-5309523Y6546609D01*
X-5309523Y6546609D02*
X-5261904Y6498990D01*
X-5261904Y6498990D02*
X-5214285Y6403752D01*
X-5214285Y6403752D02*
X-5214285Y6165657D01*
X-5214285Y6165657D02*
X-5261904Y6070419D01*
X-5261904Y6070419D02*
X-5309523Y6022800D01*
X-5309523Y6022800D02*
X-5404761Y5975180D01*
X-5404761Y5975180D02*
X-5690475Y5975180D01*
X-5690475Y5975180D02*
X-5785713Y6022800D01*
X-5785713Y6022800D02*
X-5833332Y6070419D01*
X8666667Y5192800D02*
X8809524Y5145180D01*
X8809524Y5145180D02*
X9047619Y5145180D01*
X9047619Y5145180D02*
X9142857Y5192800D01*
X9142857Y5192800D02*
X9190476Y5240419D01*
X9190476Y5240419D02*
X9238095Y5335657D01*
X9238095Y5335657D02*
X9238095Y5430895D01*
X9238095Y5430895D02*
X9190476Y5526133D01*
X9190476Y5526133D02*
X9142857Y5573752D01*
X9142857Y5573752D02*
X9047619Y5621371D01*
X9047619Y5621371D02*
X8857143Y5668990D01*
X8857143Y5668990D02*
X8761905Y5716609D01*
X8761905Y5716609D02*
X8714286Y5764228D01*
X8714286Y5764228D02*
X8666667Y5859466D01*
X8666667Y5859466D02*
X8666667Y5954704D01*
X8666667Y5954704D02*
X8714286Y6049942D01*
X8714286Y6049942D02*
X8761905Y6097561D01*
X8761905Y6097561D02*
X8857143Y6145180D01*
X8857143Y6145180D02*
X9095238Y6145180D01*
X9095238Y6145180D02*
X9238095Y6097561D01*
X9571429Y6145180D02*
X9809524Y5145180D01*
X9809524Y5145180D02*
X10000000Y5859466D01*
X10000000Y5859466D02*
X10190476Y5145180D01*
X10190476Y5145180D02*
X10428572Y6145180D01*
X11333333Y5145180D02*
X10761905Y5145180D01*
X11047619Y5145180D02*
X11047619Y6145180D01*
X11047619Y6145180D02*
X10952381Y6002323D01*
X10952381Y6002323D02*
X10857143Y5907085D01*
X10857143Y5907085D02*
X10761905Y5859466D01*
%TO.C,R4*%
D11*
X-13522500Y-2237258D02*
X-13522500Y-1762742D01*
X-12477500Y-2237258D02*
X-12477500Y-1762742D01*
%TO.C,BT1*%
X-8785000Y12660000D02*
X-1810000Y12660000D01*
X-8785000Y9790000D02*
X-8785000Y12660000D01*
X-8780000Y9790000D02*
X-5060000Y9790000D01*
X-2940000Y9790000D02*
X4035000Y9790000D01*
X310000Y12660000D02*
X4035000Y12660000D01*
X4035000Y9790000D02*
X4035000Y12660000D01*
%TO.C,LED1*%
X-7485000Y-11765000D02*
X-7485000Y-13235000D01*
X-7485000Y-13235000D02*
X-5200000Y-13235000D01*
X-5200000Y-11765000D02*
X-7485000Y-11765000D01*
%TO.C,J1*%
X5120000Y-5120000D02*
X6500000Y-5120000D01*
X5120000Y-6500000D02*
X5120000Y-5120000D01*
X5120000Y-7770000D02*
X5120000Y-15500000D01*
X5120000Y-7770000D02*
X7880000Y-7770000D01*
X5120000Y-15500000D02*
X7880000Y-15500000D01*
X7880000Y-7770000D02*
X7880000Y-15500000D01*
%TO.C,BZ1*%
X-11600000Y-2400000D02*
X-11600000Y-4600000D01*
X-11600000Y-2400000D02*
X-2400000Y-2400000D01*
X-11600000Y-4600000D02*
X-12000000Y-4600000D01*
X-11600000Y-9400000D02*
X-11600000Y-11600000D01*
X-2400000Y-2400000D02*
X-2400000Y-4600000D01*
X-2400000Y-9400000D02*
X-2400000Y-11600000D01*
X-2400000Y-11600000D02*
X-11600000Y-11600000D01*
%TO.C,R1*%
X7977500Y-2737258D02*
X7977500Y-2262742D01*
X9022500Y-2737258D02*
X9022500Y-2262742D01*
%TO.C,R2*%
X7477500Y7762742D02*
X7477500Y8237258D01*
X8522500Y7762742D02*
X8522500Y8237258D01*
%TO.C,R3*%
X-6237258Y5522500D02*
X-5762742Y5522500D01*
X-6237258Y4477500D02*
X-5762742Y4477500D01*
%TO.C,SW1*%
X7280000Y960000D02*
X7280000Y3040000D01*
X8550000Y4720000D02*
X8060000Y4230000D01*
X8550000Y4720000D02*
X11450000Y4720000D01*
X8550000Y-720000D02*
X8060000Y-230000D01*
X8550000Y-720000D02*
X11450000Y-720000D01*
X11450000Y4720000D02*
X11940000Y4230000D01*
X11450000Y-720000D02*
X11940000Y-230000D01*
X12720000Y960000D02*
X12720000Y3040000D01*
%TD*%
M02*
