%TF.GenerationSoftware,KiCad,Pcbnew,10.0.6*%
%TF.CreationDate,2026-09-08T17:42:08+02:00*%
%TF.ProjectId,cryo-temp-alert,6372796f-2d74-4656-9d70-2d616c657274,rev?*%
%TF.SameCoordinates,Original*%
%TF.FileFunction,Legend,Bot*%
%TF.FilePolarity,Positive*%
%FSLAX46Y46*%
G04 Gerber Fmt 4.6, Leading zero omitted, Abs format (unit mm)*
G04 Created by KiCad (PCBNEW 10.0.6) date 2026-09-08 17:42:08*
%MOMM*%
%LPD*%
G01*
G04 APERTURE LIST*
%ADD10C,0.150000*%
%ADD11C,0.120000*%
G04 APERTURE END LIST*
D10*
X3903333Y4140419D02*
X3855714Y4092800D01*
X3855714Y4092800D02*
X3712857Y4045180D01*
X3712857Y4045180D02*
X3617619Y4045180D01*
X3617619Y4045180D02*
X3474762Y4092800D01*
X3474762Y4092800D02*
X3379524Y4188038D01*
X3379524Y4188038D02*
X3331905Y4283276D01*
X3331905Y4283276D02*
X3284286Y4473752D01*
X3284286Y4473752D02*
X3284286Y4616609D01*
X3284286Y4616609D02*
X3331905Y4807085D01*
X3331905Y4807085D02*
X3379524Y4902323D01*
X3379524Y4902323D02*
X3474762Y4997561D01*
X3474762Y4997561D02*
X3617619Y5045180D01*
X3617619Y5045180D02*
X3712857Y5045180D01*
X3712857Y5045180D02*
X3855714Y4997561D01*
X3855714Y4997561D02*
X3903333Y4949942D01*
X4855714Y4045180D02*
X4284286Y4045180D01*
X4570000Y4045180D02*
X4570000Y5045180D01*
X4570000Y5045180D02*
X4474762Y4902323D01*
X4474762Y4902323D02*
X4379524Y4807085D01*
X4379524Y4807085D02*
X4284286Y4759466D01*
X1903333Y6640419D02*
X1855714Y6592800D01*
X1855714Y6592800D02*
X1712857Y6545180D01*
X1712857Y6545180D02*
X1617619Y6545180D01*
X1617619Y6545180D02*
X1474762Y6592800D01*
X1474762Y6592800D02*
X1379524Y6688038D01*
X1379524Y6688038D02*
X1331905Y6783276D01*
X1331905Y6783276D02*
X1284286Y6973752D01*
X1284286Y6973752D02*
X1284286Y7116609D01*
X1284286Y7116609D02*
X1331905Y7307085D01*
X1331905Y7307085D02*
X1379524Y7402323D01*
X1379524Y7402323D02*
X1474762Y7497561D01*
X1474762Y7497561D02*
X1617619Y7545180D01*
X1617619Y7545180D02*
X1712857Y7545180D01*
X1712857Y7545180D02*
X1855714Y7497561D01*
X1855714Y7497561D02*
X1903333Y7449942D01*
X2284286Y7449942D02*
X2331905Y7497561D01*
X2331905Y7497561D02*
X2427143Y7545180D01*
X2427143Y7545180D02*
X2665238Y7545180D01*
X2665238Y7545180D02*
X2760476Y7497561D01*
X2760476Y7497561D02*
X2808095Y7449942D01*
X2808095Y7449942D02*
X2855714Y7354704D01*
X2855714Y7354704D02*
X2855714Y7259466D01*
X2855714Y7259466D02*
X2808095Y7116609D01*
X2808095Y7116609D02*
X2236667Y6545180D01*
X2236667Y6545180D02*
X2855714Y6545180D01*
X-3761904Y-3654819D02*
X-3761904Y-4464342D01*
X-3761904Y-4464342D02*
X-3714285Y-4559580D01*
X-3714285Y-4559580D02*
X-3666666Y-4607200D01*
X-3666666Y-4607200D02*
X-3571428Y-4654819D01*
X-3571428Y-4654819D02*
X-3380952Y-4654819D01*
X-3380952Y-4654819D02*
X-3285714Y-4607200D01*
X-3285714Y-4607200D02*
X-3238095Y-4559580D01*
X-3238095Y-4559580D02*
X-3190476Y-4464342D01*
X-3190476Y-4464342D02*
X-3190476Y-3654819D01*
X-2190476Y-4654819D02*
X-2761904Y-4654819D01*
X-2476190Y-4654819D02*
X-2476190Y-3654819D01*
X-2476190Y-3654819D02*
X-2571428Y-3797676D01*
X-2571428Y-3797676D02*
X-2666666Y-3892914D01*
X-2666666Y-3892914D02*
X-2761904Y-3940533D01*
X-761904Y-4504819D02*
X-761904Y-5314342D01*
X-761904Y-5314342D02*
X-714285Y-5409580D01*
X-714285Y-5409580D02*
X-666666Y-5457200D01*
X-666666Y-5457200D02*
X-571428Y-5504819D01*
X-571428Y-5504819D02*
X-380952Y-5504819D01*
X-380952Y-5504819D02*
X-285714Y-5457200D01*
X-285714Y-5457200D02*
X-238095Y-5409580D01*
X-238095Y-5409580D02*
X-190476Y-5314342D01*
X-190476Y-5314342D02*
X-190476Y-4504819D01*
X238095Y-4600057D02*
X285714Y-4552438D01*
X285714Y-4552438D02*
X380952Y-4504819D01*
X380952Y-4504819D02*
X619047Y-4504819D01*
X619047Y-4504819D02*
X714285Y-4552438D01*
X714285Y-4552438D02*
X761904Y-4600057D01*
X761904Y-4600057D02*
X809523Y-4695295D01*
X809523Y-4695295D02*
X809523Y-4790533D01*
X809523Y-4790533D02*
X761904Y-4933390D01*
X761904Y-4933390D02*
X190476Y-5504819D01*
X190476Y-5504819D02*
X809523Y-5504819D01*
%TO.C,C1*%
D11*
X4990000Y4359420D02*
X4990000Y4640580D01*
X6010000Y4359420D02*
X6010000Y4640580D01*
%TO.C,C2*%
X2990000Y6859420D02*
X2990000Y7140580D01*
X4010000Y6859420D02*
X4010000Y7140580D01*
%TO.C,U1*%
X-5310000Y3385000D02*
X-690000Y3385000D01*
X-690000Y-3385000D02*
X-5310000Y-3385000D01*
X860000Y-2930000D02*
X1190000Y-2690000D01*
X1190000Y-3170000D01*
X860000Y-2930000D01*
G36*
X1190000Y-3170000D02*
G01*
X860000Y-2930000D01*
X1190000Y-2690000D01*
X1190000Y-3170000D01*
G37*
%TO.C,U2*%
X-699252Y-5890000D02*
X1110000Y-5890000D01*
X1110000Y-8110000D02*
X-1110000Y-8110000D01*
X-990000Y-5880000D02*
X-1130000Y-5690000D01*
X-850000Y-5690000D01*
X-990000Y-5880000D01*
G36*
X-990000Y-5880000D02*
G01*
X-1130000Y-5690000D01*
X-850000Y-5690000D01*
X-990000Y-5880000D01*
G37*
%TD*%
M02*
